<?xml version="1.0" encoding="UTF-8" standalone="no"?>
<!-- Generator: Fusion 360, Shaper Origin Export Add-In, Version 1.4.1  -->

<svg
   xmlns:shaper="http://www.shapertools.com/namespaces/shaper"
   xmlns:dc="http://purl.org/dc/elements/1.1/"
   xmlns:cc="http://creativecommons.org/ns#"
   xmlns:rdf="http://www.w3.org/1999/02/22-rdf-syntax-ns#"
   xmlns:svg="http://www.w3.org/2000/svg"
   xmlns="http://www.w3.org/2000/svg"
   xmlns:sodipodi="http://sodipodi.sourceforge.net/DTD/sodipodi-0.dtd"
   xmlns:inkscape="http://www.inkscape.org/namespaces/inkscape"
   enable-background="new 0 0 24.025 11.737543"
   height="11.737543cm"
   shaper:fusionaddin="version:1.4.1"
   version="1.1"
   viewBox="0 0 24.025 11.737543"
   width="24.025cm"
   x="0cm"
   xml:space="preserve"
   y="0cm"
   id="svg847"
   sodipodi:docname="standFloor.svg"
   inkscape:version="0.92.4 (5da689c313, 2019-01-14)"><metadata
     id="metadata853"><rdf:RDF><cc:Work
         rdf:about=""><dc:format>image/svg+xml</dc:format><dc:type
           rdf:resource="http://purl.org/dc/dcmitype/StillImage" /><dc:title></dc:title></cc:Work></rdf:RDF></metadata><defs
     id="defs851" /><sodipodi:namedview
     pagecolor="#ffffff"
     bordercolor="#666666"
     borderopacity="1"
     objecttolerance="10"
     gridtolerance="10"
     guidetolerance="10"
     inkscape:pageopacity="0"
     inkscape:pageshadow="2"
     inkscape:window-width="1920"
     inkscape:window-height="1017"
     id="namedview849"
     showgrid="false"
     inkscape:zoom="1.0902149"
     inkscape:cx="449.65126"
     inkscape:cy="228.11771"
     inkscape:window-x="-8"
     inkscape:window-y="-8"
     inkscape:window-maximized="1"
     inkscape:current-layer="svg847" /><path
     d="M4,11.437543 L4,11.737543 4.425,11.737543 4.425,10.7375483 4.725,10.7375483 4.725,8.7375483 4.425,8.7375483 4.425,6.7375483 4.725,6.7375483 4.725,4.7375483 4.425,4.7375483 4.425,2.7375483 4.725,2.7375483 4.725,0.7375483 4.425,0.7375483 4.425,0 4,0 4,0.3 2,0.3 2,0 0,0 -0,0.3 -2,0.3 -2,0 -4,0 -4,0.3 -6,0.3 -6,0 -8,0 -8,0.3 -10,0.3 -10,0 -12,0 -12,0.3 -14,0.3 -14,0 -16,0 -16,0.3 -18,0.3 -18,0 -19,0 -19,0.7375483 -19.3,0.7375483 -19.3,2.7375483 -19,2.7375483 -19,4.7375483 -19.3,4.7375483 -19.3,6.7375483 -19,6.7375483 -19,8.7375483 -19.3,8.7375483 -19.3,10.7375483 -19,10.7375483 -19,11.737543 -18,11.737543 -18,11.437543 -16,11.437543 -16,11.737543 -14,11.737543 -14,11.437543 -12,11.437543 -12,11.737543 -10,11.737543 -10,11.437543 -8,11.437543 -8,11.737543 -6,11.737543 -6,11.437543 -4,11.437543 -4,11.737543 -2,11.737543 -2,11.437543 0,11.437543 0,11.737543 2,11.737543 2,11.437543 4,11.437543z"
     fill="rgb(0,0,0)"
     shaper:cutDepth="0.003"
     shaper:pathType="exterior"
     transform="matrix(1,0,0,-1,19.3,11.737543)"
     vector-effect="non-scaling-stroke"
     id="path845"
     style="fill:none;stroke:#000000;stroke-opacity:1;stroke-width:0.08;stroke-miterlimit:4;stroke-dasharray:none" /></svg>