<?xml version="1.0" encoding="UTF-8" standalone="no"?>
<!-- Generator: Fusion 360, Shaper Origin Export Add-In, Version 1.4.1  -->

<svg
   xmlns:shaper="http://www.shapertools.com/namespaces/shaper"
   xmlns:dc="http://purl.org/dc/elements/1.1/"
   xmlns:cc="http://creativecommons.org/ns#"
   xmlns:rdf="http://www.w3.org/1999/02/22-rdf-syntax-ns#"
   xmlns:svg="http://www.w3.org/2000/svg"
   xmlns="http://www.w3.org/2000/svg"
   xmlns:sodipodi="http://sodipodi.sourceforge.net/DTD/sodipodi-0.dtd"
   xmlns:inkscape="http://www.inkscape.org/namespaces/inkscape"
   enable-background="new 0 0 24.025 11.7375483"
   height="11.7375483cm"
   shaper:fusionaddin="version:1.4.1"
   version="1.1"
   viewBox="0 0 24.025 11.7375483"
   width="24.025cm"
   x="0cm"
   xml:space="preserve"
   y="0cm"
   id="svg827"
   sodipodi:docname="standCeil.svg"
   inkscape:version="0.92.4 (5da689c313, 2019-01-14)"><metadata
     id="metadata833"><rdf:RDF><cc:Work
         rdf:about=""><dc:format>image/svg+xml</dc:format><dc:type
           rdf:resource="http://purl.org/dc/dcmitype/StillImage" /><dc:title></dc:title></cc:Work></rdf:RDF></metadata><defs
     id="defs831" /><sodipodi:namedview
     pagecolor="#ffffff"
     bordercolor="#666666"
     borderopacity="1"
     objecttolerance="10"
     gridtolerance="10"
     guidetolerance="10"
     inkscape:pageopacity="0"
     inkscape:pageshadow="2"
     inkscape:window-width="1920"
     inkscape:window-height="1017"
     id="namedview829"
     showgrid="false"
     inkscape:zoom="1.5693288"
     inkscape:cx="386.41448"
     inkscape:cy="221.81193"
     inkscape:window-x="-8"
     inkscape:window-y="-8"
     inkscape:window-maximized="1"
     inkscape:current-layer="svg827" /><path
     d="M-3.3,9.212543 L-3.3,9.512543 -5.3,9.512543 -5.3,9.212543 -7.3,9.212543 -7.3,9.512543 -9.3,9.512543 -9.3,9.212543 -11.3,9.212543 -11.3,9.512543 -13.3,9.512543 -13.3,9.212543 -15.3,9.212543 -15.3,9.512543 -17.3,9.512543 -17.3,9.212543 -19.3,9.212543 -19.3,9.512543 -21.3,9.512543 -21.3,9.212543 -23.3,9.212543 -23.3,9.512543 -24.025,9.512543 -24.025,8.425 -23.725,8.425 -23.725,7.375 -24.025,7.375 -24.025,5.925 -23.725,5.925 -23.725,4.775 -24.025,4.775 -24.025,3.325 -23.725,3.325 -23.725,2.275 -24.025,2.275 -24.025,0.725 -23.725,0.725 -23.725,-0.325 -24.025,-0.325 -24.025,-2.225 -23.3,-2.225 -23.3,-1.925 -21.3,-1.925 -21.3,-2.225 -19.3,-2.225 -19.3,-1.925 -17.3,-1.925 -17.3,-2.225 -15.3,-2.225 -15.3,-1.925 -13.3,-1.925 -13.3,-2.225 -11.3,-2.225 -11.3,-1.925 -9.3,-1.925 -9.3,-2.225 -7.3,-2.225 -7.3,-1.925 -5.3,-1.925 -5.3,-2.225 -3.3,-2.225 -3.3,-1.925 -1.3,-1.925 -1.3,-2.2250052 0,-2.2250052 0,0 -0.3,0 -0.3,1.185 0,1.185 0,2.6 -0.3,2.6 -0.3,3.785 0,3.785 0,5.2 -0.3,5.2 -0.3,6.385 0,6.385 0,7.837543 -0.3,7.837543 -0.3,9.512543 -1.3,9.512543 -1.3,9.212543 -3.3,9.212543z"
     fill="rgb(0,0,0)"
     shaper:cutDepth="0.003"
     shaper:pathType="exterior"
     transform="matrix(1,0,0,-1,24.025,9.512543)"
     vector-effect="non-scaling-stroke"
     id="path825"
     style="fill:none;fill-opacity:1;stroke:#000000;stroke-opacity:1;stroke-width:0.08;stroke-miterlimit:4;stroke-dasharray:none" /></svg>