<?xml version="1.0" encoding="UTF-8" standalone="no"?>
<!-- Generator: Fusion 360, Shaper Origin Export Add-In, Version 1.4.1  -->

<svg
   xmlns:shaper="http://www.shapertools.com/namespaces/shaper"
   xmlns:dc="http://purl.org/dc/elements/1.1/"
   xmlns:cc="http://creativecommons.org/ns#"
   xmlns:rdf="http://www.w3.org/1999/02/22-rdf-syntax-ns#"
   xmlns:svg="http://www.w3.org/2000/svg"
   xmlns="http://www.w3.org/2000/svg"
   xmlns:sodipodi="http://sodipodi.sourceforge.net/DTD/sodipodi-0.dtd"
   xmlns:inkscape="http://www.inkscape.org/namespaces/inkscape"
   enable-background="new 0 0 12.26 24.025"
   height="24.025cm"
   shaper:fusionaddin="version:1.4.1"
   version="1.1"
   viewBox="0 0 12.26 24.025"
   width="12.26cm"
   x="0cm"
   xml:space="preserve"
   y="0cm"
   id="svg3119"
   sodipodi:docname="standUpperBack.svg"
   inkscape:version="0.92.4 (5da689c313, 2019-01-14)"><metadata
     id="metadata3125"><rdf:RDF><cc:Work
         rdf:about=""><dc:format>image/svg+xml</dc:format><dc:type
           rdf:resource="http://purl.org/dc/dcmitype/StillImage" /></cc:Work></rdf:RDF></metadata><defs
     id="defs3123" /><sodipodi:namedview
     pagecolor="#ffffff"
     bordercolor="#666666"
     borderopacity="1"
     objecttolerance="10"
     gridtolerance="10"
     guidetolerance="10"
     inkscape:pageopacity="0"
     inkscape:pageshadow="2"
     inkscape:window-width="1920"
     inkscape:window-height="1017"
     id="namedview3121"
     showgrid="false"
     inkscape:zoom="0.25990288"
     inkscape:cx="231.68504"
     inkscape:cy="454.01574"
     inkscape:window-x="-8"
     inkscape:window-y="-8"
     inkscape:window-maximized="1"
     inkscape:current-layer="svg3119" /><path
     d="M2,23.425 L2,23.725 0,23.725 0,23.425 -2,23.425 -2,23.725 -4,23.725 -4,23.425 -5.81,23.425 -5.81,22.425 -5.5188282,22.425 -5.5188282,20.425 -5.81,20.425 -5.81,18.425 -5.5188282,18.425 -5.5188282,16.425 -5.81,16.425 -5.81,14.425 -5.5188282,14.425 -5.5188282,12.425 -5.81,12.425 -5.81,10.425 -5.5188282,10.425 -5.5188282,8.425 -5.81,8.425 -5.81,6.425 -5.5188282,6.425 -5.5188282,4.425 -5.81,4.425 -5.81,2.425 -5.5188282,2.425 -5.5188282,0.425 -5.81,0.425 -5.81,0 -4,0 -4,-0.3 -2,-0.3 -2,0 0,0 0,-0.3 2,-0.3 2,0 4,0 4,-0.3 6,-0.3 6,0 6.3,0 6.3,0.425 6.45,0.425 6.45,2.425 6.3,2.425 6.3,4.425 6.45,4.425 6.45,6.425 6.3,6.425 6.3,8.425 6.45,8.425 6.45,10.425 6.3,10.425 6.3,12.425 6.45,12.425 6.45,14.425 6.3,14.425 6.3,16.425 6.45,16.425 6.45,18.425 6.3,18.425 6.3,20.425 6.45,20.425 6.45,22.425 6.3,22.425 6.3,23.425 6,23.425 6,23.725 4,23.725 4,23.425 2,23.425z"
     fill="rgb(0,0,0)"
     shaper:cutDepth="0.003"
     shaper:pathType="exterior"
     transform="matrix(1,0,0,-1,5.81,23.725)"
     vector-effect="non-scaling-stroke"
     id="path3117"
     style="fill:none;stroke:#000000;stroke-opacity:1;stroke-width:0.08;stroke-miterlimit:4;stroke-dasharray:none" /></svg>