<?xml version="1.0" encoding="UTF-8" standalone="no"?>
<!-- Generator: Fusion 360, Shaper Origin Export Add-In, Version 1.4.1  -->

<svg
   xmlns:shaper="http://www.shapertools.com/namespaces/shaper"
   xmlns:dc="http://purl.org/dc/elements/1.1/"
   xmlns:cc="http://creativecommons.org/ns#"
   xmlns:rdf="http://www.w3.org/1999/02/22-rdf-syntax-ns#"
   xmlns:svg="http://www.w3.org/2000/svg"
   xmlns="http://www.w3.org/2000/svg"
   xmlns:sodipodi="http://sodipodi.sourceforge.net/DTD/sodipodi-0.dtd"
   xmlns:inkscape="http://www.inkscape.org/namespaces/inkscape"
   enable-background="new 0 0 5.15 24.025"
   height="24.025cm"
   shaper:fusionaddin="version:1.4.1"
   version="1.1"
   viewBox="0 0 5.15 24.025"
   width="5.15cm"
   x="0cm"
   xml:space="preserve"
   y="0cm"
   id="svg831"
   sodipodi:docname="standLowerBack.svg"
   inkscape:version="0.92.4 (5da689c313, 2019-01-14)"><metadata
     id="metadata837"><rdf:RDF><cc:Work
         rdf:about=""><dc:format>image/svg+xml</dc:format><dc:type
           rdf:resource="http://purl.org/dc/dcmitype/StillImage" /></cc:Work></rdf:RDF></metadata><defs
     id="defs835" /><sodipodi:namedview
     pagecolor="#ffffff"
     bordercolor="#666666"
     borderopacity="1"
     objecttolerance="10"
     gridtolerance="10"
     guidetolerance="10"
     inkscape:pageopacity="0"
     inkscape:pageshadow="2"
     inkscape:window-width="1920"
     inkscape:window-height="1017"
     id="namedview833"
     showgrid="false"
     inkscape:zoom="0.93388833"
     inkscape:cx="97.322836"
     inkscape:cy="454.01574"
     inkscape:window-x="-8"
     inkscape:window-y="-8"
     inkscape:window-maximized="1"
     inkscape:current-layer="svg831" /><path
     d="M4.7,1 L4.85,1 4.85,3 4.7,3 4.7,5 4.85,5 4.85,7 4.7,7 4.7,9 4.85,9 4.85,11 4.7,11 4.7,13 4.85,13 4.85,15 4.7,15 4.7,17 4.85,17 4.85,19 4.7,19 4.7,21 4.85,21 4.85,23 4.7,23 4.7,23.425 4.4,23.425 4.4,23.725 2.9,23.725 2.9,23.425 1.5,23.425 1.5,23.725 0,23.725 -0,23 -0.3,23 -0.3,21 -0,21 -0,19 -0.3,19 -0.3,17 -0,17 -0,15 -0.3,15 -0.3,13 -0,13 -0,11 -0.3,11 -0.3,9 -0,9 -0,7 -0.3,7 -0.3,5 -0,5 0,3 -0.3,3 -0.3,1 0,1 0,-0 0,-0.3 1.5,-0.3 1.5,0 2.9,0 2.9,-0.3 4.4,-0.3 4.4,0 4.7,0 4.7,1z"
     fill="rgb(0,0,0)"
     shaper:cutDepth="0.003"
     shaper:pathType="exterior"
     transform="matrix(1,0,0,-1,0.3,23.725)"
     vector-effect="non-scaling-stroke"
     id="path827"
     style="fill:none;stroke:#000000;stroke-opacity:1;stroke-width:0.08;stroke-miterlimit:4;stroke-dasharray:none" /><path
     d="M1.7,11.7 a1,1 0 1,1 2,0 a1,1 0 1,1 -2,0z"
     fill="rgb(255,255,255)"
     shaper:cutDepth="0.003"
     shaper:pathType="interior"
     stroke="rgb(0,0,0)"
     stroke-width="2"
     transform="matrix(1,0,0,-1,0.3,23.725)"
     vector-effect="non-scaling-stroke"
     id="path829"
     style="fill:none;stroke:#000000;stroke-opacity:1;stroke-width:0.08;stroke-miterlimit:4;stroke-dasharray:none" /></svg>