<?xml version="1.0" encoding="UTF-8" standalone="no"?>
<!-- Generator: Fusion 360, Shaper Origin Export Add-In, Version 1.4.1  -->

<svg
   xmlns:shaper="http://www.shapertools.com/namespaces/shaper"
   xmlns:dc="http://purl.org/dc/elements/1.1/"
   xmlns:cc="http://creativecommons.org/ns#"
   xmlns:rdf="http://www.w3.org/1999/02/22-rdf-syntax-ns#"
   xmlns:svg="http://www.w3.org/2000/svg"
   xmlns="http://www.w3.org/2000/svg"
   xmlns:sodipodi="http://sodipodi.sourceforge.net/DTD/sodipodi-0.dtd"
   xmlns:inkscape="http://www.inkscape.org/namespaces/inkscape"
   enable-background="new 0 0 23.425 6.11"
   height="6.11cm"
   shaper:fusionaddin="version:1.4.1"
   version="1.1"
   viewBox="0 0 23.425 6.11"
   width="23.425cm"
   x="0cm"
   xml:space="preserve"
   y="0cm"
   id="svg1430"
   sodipodi:docname="standFront.svg"
   inkscape:version="0.92.4 (5da689c313, 2019-01-14)"><metadata
     id="metadata1436"><rdf:RDF><cc:Work
         rdf:about=""><dc:format>image/svg+xml</dc:format><dc:type
           rdf:resource="http://purl.org/dc/dcmitype/StillImage" /></cc:Work></rdf:RDF></metadata><defs
     id="defs1434" /><sodipodi:namedview
     pagecolor="#ffffff"
     bordercolor="#666666"
     borderopacity="1"
     objecttolerance="10"
     gridtolerance="10"
     guidetolerance="10"
     inkscape:pageopacity="0"
     inkscape:pageshadow="2"
     inkscape:window-width="1920"
     inkscape:window-height="1017"
     id="namedview1432"
     showgrid="false"
     inkscape:zoom="1.5812878"
     inkscape:cx="377.59325"
     inkscape:cy="161.41131"
     inkscape:window-x="-8"
     inkscape:window-y="-8"
     inkscape:window-maximized="1"
     inkscape:current-layer="svg1430" /><path
     d="M23.425,0.3 L23.425,0.7837685 23,0.7837685 23,1.11 21,1.11 21,0.7837685 19,0.7837685 19,1.11 17,1.11 17,0.7837685 15,0.7837685 15,1.11 13,1.11 13,0.7837685 11,0.7837685 11,1.11 9,1.11 9,0.7837685 7,0.7837685 7,1.11 5,1.11 5,0.7837685 3,0.7837685 3,1.11 1,1.11 1,0.7837685 0,0.7837685 0,0.3 1,0.3 1,-0 0,-0 0,-4.7 1,-4.7 1,-5 3,-5 3,-4.7 5,-4.7 5,-5 7,-5 7,-4.7 9,-4.7 9,-5 11,-5 11,-4.7 13,-4.7 13,-5 15,-5 15,-4.7 17,-4.7 17,-5 19,-5 19,-4.7 21,-4.7 21,-5 23,-5 23,-4.7 23.425,-4.7 23.425,-0 23,-0 23,0.3 23.425,0.3z"
     fill="rgb(0,0,0)"
     shaper:cutDepth="0.003"
     shaper:pathType="exterior"
     transform="matrix(1,0,0,-1,-0,1.11)"
     vector-effect="non-scaling-stroke"
     id="path1418"
     style="fill:none;stroke:#000000;stroke-opacity:1;stroke-width:0.08;stroke-miterlimit:4;stroke-dasharray:none" /><path
     d="M15,-0 L17,-0 17,0.3 15,0.3 15,-0z"
     fill="rgb(255,255,255)"
     shaper:cutDepth="0.003"
     shaper:pathType="interior"
     stroke="rgb(0,0,0)"
     stroke-width="2"
     transform="matrix(1,0,0,-1,-0,1.11)"
     vector-effect="non-scaling-stroke"
     id="path1420"
     style="fill:none;stroke:#000000;stroke-opacity:1;stroke-width:0.08;stroke-miterlimit:4;stroke-dasharray:none" /><path
     d="M11,-0 L13,-0 13,0.3 11,0.3 11,-0z"
     fill="rgb(255,255,255)"
     shaper:cutDepth="0.003"
     shaper:pathType="interior"
     stroke="rgb(0,0,0)"
     stroke-width="2"
     transform="matrix(1,0,0,-1,-0,1.11)"
     vector-effect="non-scaling-stroke"
     id="path1422"
     style="fill:none;stroke:#000000;stroke-opacity:1;stroke-width:0.08;stroke-miterlimit:4;stroke-dasharray:none" /><path
     d="M7,-0 L9,-0 9,0.3 7,0.3 7,-0z"
     fill="rgb(255,255,255)"
     shaper:cutDepth="0.003"
     shaper:pathType="interior"
     stroke="rgb(0,0,0)"
     stroke-width="2"
     transform="matrix(1,0,0,-1,-0,1.11)"
     vector-effect="non-scaling-stroke"
     id="path1424"
     style="fill:none;stroke:#000000;stroke-opacity:1;stroke-width:0.08;stroke-miterlimit:4;stroke-dasharray:none" /><path
     d="M19,-0 L21,-0 21,0.3 19,0.3 19,-0z"
     fill="rgb(255,255,255)"
     shaper:cutDepth="0.003"
     shaper:pathType="interior"
     stroke="rgb(0,0,0)"
     stroke-width="2"
     transform="matrix(1,0,0,-1,-0,1.11)"
     vector-effect="non-scaling-stroke"
     id="path1426"
     style="fill:none;stroke:#000000;stroke-opacity:1;stroke-width:0.08;stroke-miterlimit:4;stroke-dasharray:none" /><path
     d="M3,-0 L5,-0 5,0.3 3,0.3 3,-0z"
     fill="rgb(255,255,255)"
     shaper:cutDepth="0.003"
     shaper:pathType="interior"
     stroke="rgb(0,0,0)"
     stroke-width="2"
     transform="matrix(1,0,0,-1,-0,1.11)"
     vector-effect="non-scaling-stroke"
     id="path1428"
     style="fill:none;stroke:#000000;stroke-opacity:1;stroke-width:0.08;stroke-miterlimit:4;stroke-dasharray:none" /></svg>