<?xml version="1.0" encoding="UTF-8" standalone="no"?>
<!-- Generator: Fusion 360, Shaper Origin Export Add-In, Version 1.4.1  -->

<svg
   xmlns:shaper="http://www.shapertools.com/namespaces/shaper"
   xmlns:dc="http://purl.org/dc/elements/1.1/"
   xmlns:cc="http://creativecommons.org/ns#"
   xmlns:rdf="http://www.w3.org/1999/02/22-rdf-syntax-ns#"
   xmlns:svg="http://www.w3.org/2000/svg"
   xmlns="http://www.w3.org/2000/svg"
   xmlns:sodipodi="http://sodipodi.sourceforge.net/DTD/sodipodi-0.dtd"
   xmlns:inkscape="http://www.inkscape.org/namespaces/inkscape"
   enable-background="new 0 0 12.3024215 10.5065694"
   height="10.5065694cm"
   shaper:fusionaddin="version:1.4.1"
   version="1.1"
   viewBox="0 0 12.3024215 10.5065694"
   width="12.3024215cm"
   x="0cm"
   xml:space="preserve"
   y="0cm"
   id="svg4812"
   sodipodi:docname="tabletHeadSide.svg"
   inkscape:version="0.92.4 (5da689c313, 2019-01-14)"><metadata
     id="metadata4818"><rdf:RDF><cc:Work
         rdf:about=""><dc:format>image/svg+xml</dc:format><dc:type
           rdf:resource="http://purl.org/dc/dcmitype/StillImage" /></cc:Work></rdf:RDF></metadata><defs
     id="defs4816" /><sodipodi:namedview
     pagecolor="#ffffff"
     bordercolor="#666666"
     borderopacity="1"
     objecttolerance="10"
     gridtolerance="10"
     guidetolerance="10"
     inkscape:pageopacity="0"
     inkscape:pageshadow="2"
     inkscape:window-width="1920"
     inkscape:window-height="1017"
     id="namedview4814"
     showgrid="false"
     inkscape:zoom="0.59431068"
     inkscape:cx="232.48671"
     inkscape:cy="198.54935"
     inkscape:window-x="-8"
     inkscape:window-y="-8"
     inkscape:window-maximized="1"
     inkscape:current-layer="svg4812" /><path
     d="M2.2455831,-0.4352659 L2.4384194,-0.2054526 0.9063305,1.0801227 0.7134942,0.8503093 -0.8185946,2.1358846 -0.6257584,2.3656979 -2.1578472,3.6512731 -2.3506835,3.4214598 -3.8827724,4.707035 -3.6899361,4.9368483 -5.222025,6.2224235 -5.4148613,5.9926102 -6.9469502,7.2781854 -6.7541139,7.5079988 -8.2862028,8.793574 -8.4790391,8.5637606 -9.0152702,9.013712 -9.5359281,8.393216 -8.999697,7.9432646 -9.1925333,7.7134513 -7.6604444,6.4278761 -7.4676081,6.6576894 -5.9355193,5.3721142 -6.1283555,5.1423009 -4.5962667,3.8567257 -4.4034304,4.086539 -2.8713415,2.8009638 -3.0641778,2.5711504 -1.5320889,1.2855752 -1.3392526,1.5153886 0.1928363,0.2298133 -0,0 1.5320889,-1.2855752 1.7249252,-1.0557619 2.2458354,-1.4928575 2.7664934,-0.8723615 2.2455831,-0.4352659z"
     fill="rgb(0,0,0)"
     shaper:cutDepth="0.003"
     shaper:pathType="exterior"
     transform="matrix(1,0,0,-1,9.5359281,9.013712)"
     vector-effect="non-scaling-stroke"
     id="path4810"
     style="fill:none;stroke:#000000;stroke-opacity:1;stroke-width:0.08;stroke-miterlimit:4;stroke-dasharray:none" /></svg>