<?xml version="1.0" encoding="UTF-8" standalone="no"?>
<!-- Generator: Fusion 360, Shaper Origin Export Add-In, Version 1.4.1  -->

<svg
   xmlns:shaper="http://www.shapertools.com/namespaces/shaper"
   xmlns:dc="http://purl.org/dc/elements/1.1/"
   xmlns:cc="http://creativecommons.org/ns#"
   xmlns:rdf="http://www.w3.org/1999/02/22-rdf-syntax-ns#"
   xmlns:svg="http://www.w3.org/2000/svg"
   xmlns="http://www.w3.org/2000/svg"
   xmlns:sodipodi="http://sodipodi.sourceforge.net/DTD/sodipodi-0.dtd"
   xmlns:inkscape="http://www.inkscape.org/namespaces/inkscape"
   enable-background="new 0 0 23.725 16.28"
   height="16.28cm"
   shaper:fusionaddin="version:1.4.1"
   version="1.1"
   viewBox="0 0 23.725 16.28"
   width="23.725cm"
   x="0cm"
   xml:space="preserve"
   y="0cm"
   id="svg3686"
   sodipodi:docname="tabletCeil.svg"
   inkscape:version="0.92.4 (5da689c313, 2019-01-14)"><metadata
     id="metadata3692"><rdf:RDF><cc:Work
         rdf:about=""><dc:format>image/svg+xml</dc:format><dc:type
           rdf:resource="http://purl.org/dc/dcmitype/StillImage" /></cc:Work></rdf:RDF></metadata><defs
     id="defs3690" /><sodipodi:namedview
     pagecolor="#ffffff"
     bordercolor="#666666"
     borderopacity="1"
     objecttolerance="10"
     gridtolerance="10"
     guidetolerance="10"
     inkscape:pageopacity="0"
     inkscape:pageshadow="2"
     inkscape:window-width="1920"
     inkscape:window-height="1017"
     id="namedview3688"
     showgrid="false"
     inkscape:zoom="0.3835483"
     inkscape:cx="448.34646"
     inkscape:cy="307.65356"
     inkscape:window-x="-8"
     inkscape:window-y="-8"
     inkscape:window-maximized="1"
     inkscape:current-layer="svg3686" /><path
     d="M19.925,-0.5583494 L19.925,-0.8583494 20.925,-0.8583494 20.925,15.4216506 19.925,15.4216506 19.925,14.8216506 17.925,14.8216506 17.925,15.4216506 15.925,15.4216506 15.925,14.8216506 13.925,14.8216506 13.925,15.4216506 11.925,15.4216506 11.925,14.8216506 9.925,14.8216506 9.925,15.4216506 7.925,15.4216506 7.925,14.8216506 5.925,14.8216506 5.925,15.4216506 3.925,15.4216506 3.925,14.8216506 1.925,14.8216506 1.925,15.4216506 -0.075,15.4216506 -0.075,14.8216506 -2.075,14.8216506 -2.075,15.4216506 -2.8,15.4216506 -2.8,14.1216506 -2.2,14.1216506 -2.2,12.1216506 -2.8,12.1216506 -2.8,10.1216506 -2.2,10.1216506 -2.2,8.1216506 -2.8,8.1216506 -2.8,6.1216506 -2.2,6.1216506 -2.2,4.1216506 -2.8,4.1216506 -2.8,2.1216506 -2.2,2.1216506 -2.2,0.1216506 -2.8,0.1216506 -2.8,-0.8583494 -2.075,-0.8583494 -2.075,-0.5583494 -0.075,-0.5583494 -0.075,-0.8583494 1.925,-0.8583494 1.925,-0.5583494 3.925,-0.5583494 3.925,-0.8583494 5.925,-0.8583494 5.925,-0.5583494 7.925,-0.5583494 7.925,-0.8583494 9.925,-0.8583494 9.925,-0.5583494 11.925,-0.5583494 11.925,-0.8583494 13.925,-0.8583494 13.925,-0.5583494 15.925,-0.5583494 15.925,-0.8583494 17.925,-0.8583494 17.925,-0.5583494 19.925,-0.5583494z"
     fill="rgb(0,0,0)"
     shaper:cutDepth="0.003"
     shaper:pathType="exterior"
     transform="matrix(1,0,0,-1,2.8,15.4216506)"
     vector-effect="non-scaling-stroke"
     id="path3682"
     style="fill:none;stroke:#000000;stroke-opacity:1;stroke-width:0.08;stroke-miterlimit:4;stroke-dasharray:none" /><path
     d="M17.925,0 L17.925,14.343563 0,14.343563 -0,0 17.925,0z"
     fill="rgb(255,255,255)"
     shaper:cutDepth="0.003"
     shaper:pathType="interior"
     stroke="rgb(0,0,0)"
     stroke-width="2"
     transform="matrix(1,0,0,-1,2.8,15.4216506)"
     vector-effect="non-scaling-stroke"
     id="path3684"
     style="fill:none;stroke:#000000;stroke-opacity:1;stroke-width:0.08;stroke-miterlimit:4;stroke-dasharray:none" /></svg>