<?xml version="1.0" encoding="UTF-8" standalone="no"?>
<!-- Generator: Fusion 360, Shaper Origin Export Add-In, Version 1.4.1  -->

<svg
   xmlns:shaper="http://www.shapertools.com/namespaces/shaper"
   xmlns:dc="http://purl.org/dc/elements/1.1/"
   xmlns:cc="http://creativecommons.org/ns#"
   xmlns:rdf="http://www.w3.org/1999/02/22-rdf-syntax-ns#"
   xmlns:svg="http://www.w3.org/2000/svg"
   xmlns="http://www.w3.org/2000/svg"
   xmlns:sodipodi="http://sodipodi.sourceforge.net/DTD/sodipodi-0.dtd"
   xmlns:inkscape="http://www.inkscape.org/namespaces/inkscape"
   enable-background="new 0 0 23.425 1.71"
   height="1.71cm"
   shaper:fusionaddin="version:1.4.1"
   version="1.1"
   viewBox="0 0 23.425 1.71"
   width="23.425cm"
   x="0cm"
   xml:space="preserve"
   y="0cm"
   id="svg5938"
   sodipodi:docname="tabletUpperSide.svg"
   inkscape:version="0.92.4 (5da689c313, 2019-01-14)"><metadata
     id="metadata5944"><rdf:RDF><cc:Work
         rdf:about=""><dc:format>image/svg+xml</dc:format><dc:type
           rdf:resource="http://purl.org/dc/dcmitype/StillImage" /></cc:Work></rdf:RDF></metadata><defs
     id="defs5942" /><sodipodi:namedview
     pagecolor="#ffffff"
     bordercolor="#666666"
     borderopacity="1"
     objecttolerance="10"
     gridtolerance="10"
     guidetolerance="10"
     inkscape:pageopacity="0"
     inkscape:pageshadow="2"
     inkscape:window-width="1920"
     inkscape:window-height="1017"
     id="namedview5940"
     showgrid="false"
     inkscape:zoom="0.39532196"
     inkscape:cx="442.67715"
     inkscape:cy="32.314961"
     inkscape:window-x="-8"
     inkscape:window-y="-8"
     inkscape:window-maximized="1"
     inkscape:current-layer="svg5938" /><path
     d="M-15,0.81 L-14,0.81 -14,1.41 -12,1.41 -12,0.81 -10,0.81 -10,1.41 -8,1.41 -8,0.81 -6,0.81 -6,1.41 -4,1.41 -4,0.81 -2,0.81 -2,1.41 -0,1.41 -0,0.81 2,0.81 2,1.41 4,1.41 4,0.81 6,0.81 6,1.41 8,1.41 8,0.81 8.425,0.81 8.425,0 8,0 8,-0.3 6,-0.3 6,0 4,0 4,-0.3 2,-0.3 2,0 -0,0 -0,-0.3 -2,-0.3 -2,0 -4,0 -4,-0.3 -6,-0.3 -6,0 -8,0 -8,-0.3 -10,-0.3 -10,0 -12,0 -12,-0.3 -14,-0.3 -14,0 -15,0 -15,0.81z"
     fill="rgb(0,0,0)"
     shaper:cutDepth="0.003"
     shaper:pathType="exterior"
     transform="matrix(1,0,0,-1,15,1.41)"
     vector-effect="non-scaling-stroke"
     id="path5936"
     style="fill:none;stroke:#000000;stroke-opacity:1;stroke-width:0.08;stroke-miterlimit:4;stroke-dasharray:none" /></svg>