<?xml version="1.0" encoding="UTF-8" standalone="no"?>
<!-- Generator: Fusion 360, Shaper Origin Export Add-In, Version 1.4.1  -->

<svg
   xmlns:shaper="http://www.shapertools.com/namespaces/shaper"
   xmlns:dc="http://purl.org/dc/elements/1.1/"
   xmlns:cc="http://creativecommons.org/ns#"
   xmlns:rdf="http://www.w3.org/1999/02/22-rdf-syntax-ns#"
   xmlns:svg="http://www.w3.org/2000/svg"
   xmlns="http://www.w3.org/2000/svg"
   xmlns:sodipodi="http://sodipodi.sourceforge.net/DTD/sodipodi-0.dtd"
   xmlns:inkscape="http://www.inkscape.org/namespaces/inkscape"
   enable-background="new 0 0 23.725 15.98"
   height="15.98cm"
   shaper:fusionaddin="version:1.4.1"
   version="1.1"
   viewBox="0 0 23.725 15.98"
   width="23.725cm"
   x="0cm"
   xml:space="preserve"
   y="0cm"
   id="svg4249"
   sodipodi:docname="tabletFloor.svg"
   inkscape:version="0.92.4 (5da689c313, 2019-01-14)"><metadata
     id="metadata4255"><rdf:RDF><cc:Work
         rdf:about=""><dc:format>image/svg+xml</dc:format><dc:type
           rdf:resource="http://purl.org/dc/dcmitype/StillImage" /></cc:Work></rdf:RDF></metadata><defs
     id="defs4253" /><sodipodi:namedview
     pagecolor="#ffffff"
     bordercolor="#666666"
     borderopacity="1"
     objecttolerance="10"
     gridtolerance="10"
     guidetolerance="10"
     inkscape:pageopacity="0"
     inkscape:pageshadow="2"
     inkscape:window-width="1920"
     inkscape:window-height="1017"
     id="namedview4251"
     showgrid="false"
     inkscape:zoom="0.39032314"
     inkscape:cx="448.34646"
     inkscape:cy="301.98424"
     inkscape:window-x="-8"
     inkscape:window-y="-8"
     inkscape:window-maximized="1"
     inkscape:current-layer="svg4249" /><path
     d="M15.3,15 L15,15 15,15.98 14,15.98 14,15.68 12,15.68 12,15.98 10,15.98 10,15.68 8,15.68 8,15.98 6,15.98 6,15.68 4,15.68 4,15.98 2,15.98 2,15.68 -0,15.68 -0,15.98 -2,15.98 -2,15.68 -4,15.68 -4,15.98 -6,15.98 -6,15.68 -8,15.68 -8,15.98 -8.425,15.98 -8.425,14.98 -8.125,14.98 -8.125,12.98 -8.425,12.98 -8.425,10.98 -8.125,10.98 -8.125,8.98 -8.425,8.98 -8.425,6.98 -8.125,6.98 -8.125,4.98 -8.425,4.98 -8.425,2.98 -8.125,2.98 -8.125,0.98 -8.425,0.98 -8.425,0 -8,-0 -8,0.3 -6,0.3 -6,0 -4,-0 -4,0.3 -2,0.3 -2,0 -0,0 0,0.3 2,0.3 2,0 4,0 4,0.3 6,0.3 6,0 8,0 8,0.3 10,0.3 10,0 12,0 12,0.3 14,0.3 14,-0 15,0 15,1 15.3,1 15.3,3 15,3 15,5 15.3,5 15.3,7 15,7 15,9 15.3,9 15.3,11 15,11 15,13 15.3,13 15.3,15z"
     fill="rgb(0,0,0)"
     shaper:cutDepth="0.003"
     shaper:pathType="exterior"
     transform="matrix(1,0,0,-1,8.425,15.98)"
     vector-effect="non-scaling-stroke"
     id="path4247"
     style="fill:none;stroke:#000000;stroke-opacity:1;stroke-width:0.08;stroke-miterlimit:4;stroke-dasharray:none" /></svg>