<?xml version="1.0" encoding="UTF-8" standalone="no"?>
<!-- Generator: Fusion 360, Shaper Origin Export Add-In, Version 1.4.1  -->

<svg
   xmlns:shaper="http://www.shapertools.com/namespaces/shaper"
   xmlns:dc="http://purl.org/dc/elements/1.1/"
   xmlns:cc="http://creativecommons.org/ns#"
   xmlns:rdf="http://www.w3.org/1999/02/22-rdf-syntax-ns#"
   xmlns:svg="http://www.w3.org/2000/svg"
   xmlns="http://www.w3.org/2000/svg"
   xmlns:sodipodi="http://sodipodi.sourceforge.net/DTD/sodipodi-0.dtd"
   xmlns:inkscape="http://www.inkscape.org/namespaces/inkscape"
   enable-background="new 0 0 17.7312911 11.7375483"
   height="11.7375483cm"
   shaper:fusionaddin="version:1.4.1"
   version="1.1"
   viewBox="0 0 17.7312911 11.7375483"
   width="17.7312911cm"
   x="0cm"
   xml:space="preserve"
   y="0cm"
   id="svg7088"
   sodipodi:docname="WholeWall2.svg"
   inkscape:version="0.92.4 (5da689c313, 2019-01-14)"><metadata
     id="metadata7094"><rdf:RDF><cc:Work
         rdf:about=""><dc:format>image/svg+xml</dc:format><dc:type
           rdf:resource="http://purl.org/dc/dcmitype/StillImage" /></cc:Work></rdf:RDF></metadata><defs
     id="defs7092" /><sodipodi:namedview
     pagecolor="#ffffff"
     bordercolor="#666666"
     borderopacity="1"
     objecttolerance="10"
     gridtolerance="10"
     guidetolerance="10"
     inkscape:pageopacity="0"
     inkscape:pageshadow="2"
     inkscape:window-width="1920"
     inkscape:window-height="1017"
     id="namedview7090"
     showgrid="false"
     inkscape:zoom="0.5222641"
     inkscape:cx="335.07951"
     inkscape:cy="221.81193"
     inkscape:window-x="-8"
     inkscape:window-y="-8"
     inkscape:window-maximized="1"
     inkscape:current-layer="svg7088" /><path
     d="M-9.6234036,11.437543 L-9.6234036,11.7375483 -11.4030726,11.7375483 -11.7546947,11.3185013 -11.7546947,11.3123621 -10.9916732,10.6721111 -10.798837,10.9019244 -9.2667481,9.6163492 -9.4595844,9.3865358 -7.9274955,8.1009606 -7.7346592,8.330774 -6.2025703,7.0451987 -6.3954066,6.8153854 -4.8633177,5.5298102 -4.6704814,5.7596235 -3.1383925,4.4740483 -3.3312288,4.244235 -1.7991399,2.9586597 -1.6063036,3.1884731 -0.0742148,1.9028979 -0.267051,1.6730845 0.2538592,1.2359889 -0.4596351,0.3856796 0,-0 5.9765964,0 5.9765964,0.7375483 5.6765964,0.7375483 5.6765964,2.7375483 5.9765964,2.7375483 5.9765964,4.7375483 5.6765964,4.7375483 5.6765964,6.7375483 5.9765964,6.7375483 5.9765964,8.7375483 5.6765964,8.7375483 5.6765964,10.7375483 5.9765964,10.7375483 5.9765964,11.7375483 5.6765964,11.7375483 5.6765964,11.4375483 4.1765964,11.4375483 4.1765964,11.7375483 2.7765964,11.7375483 2.7765964,11.4375483 1.2765964,11.4375483 1.2765964,11.7375483 0.9765964,11.7375483 0.9765964,9.512543 0.6765964,9.512543 0.6765964,11.7375483 0.3765964,11.7375483 0.3765964,11.437543 -1.6234036,11.437543 -1.6234036,11.7375483 -3.6234036,11.7375483 -3.6234036,11.437543 -5.6234036,11.437543 -5.6234036,11.7375483 -7.6234036,11.7375483 -7.6234036,11.437543 -9.6234036,11.437543z"
     fill="rgb(0,0,0)"
     shaper:cutDepth="0.003"
     shaper:pathType="exterior"
     transform="matrix(1,0,0,-1,11.7546947,11.7375483)"
     vector-effect="non-scaling-stroke"
     id="path7080"
     style="fill:none;stroke:#000000;stroke-opacity:1;stroke-width:0.08;stroke-miterlimit:4;stroke-dasharray:none" /><path
     d="M0.6765964,8.327543 L0.6765964,6.912543 0.9765964,6.912543 0.9765964,8.327543 0.6765964,8.327543z"
     fill="rgb(255,255,255)"
     shaper:cutDepth="0.003"
     shaper:pathType="interior"
     stroke="rgb(0,0,0)"
     stroke-width="2"
     transform="matrix(1,0,0,-1,11.7546947,11.7375483)"
     vector-effect="non-scaling-stroke"
     id="path7082"
     style="fill:none;stroke:#000000;stroke-opacity:1;stroke-width:0.08;stroke-miterlimit:4;stroke-dasharray:none" /><path
     d="M0.6765964,5.727543 L0.6765964,4.312543 0.9765964,4.312543 0.9765964,5.727543 0.6765964,5.727543z"
     fill="rgb(255,255,255)"
     shaper:cutDepth="0.003"
     shaper:pathType="interior"
     stroke="rgb(0,0,0)"
     stroke-width="2"
     transform="matrix(1,0,0,-1,11.7546947,11.7375483)"
     vector-effect="non-scaling-stroke"
     id="path7084"
     style="fill:none;stroke:#000000;stroke-opacity:1;stroke-width:0.08;stroke-miterlimit:4;stroke-dasharray:none" /><path
     d="M0.6765964,3.127543 L0.6765964,1.675 0.9765964,1.675 0.9765964,3.127543 0.6765964,3.127543z"
     fill="rgb(255,255,255)"
     shaper:cutDepth="0.003"
     shaper:pathType="interior"
     stroke="rgb(0,0,0)"
     stroke-width="2"
     transform="matrix(1,0,0,-1,11.7546947,11.7375483)"
     vector-effect="non-scaling-stroke"
     id="path7086"
     style="fill:none;stroke:#000000;stroke-opacity:1;stroke-width:0.08;stroke-miterlimit:4;stroke-dasharray:none" /></svg>