<?xml version="1.0" encoding="UTF-8" standalone="no"?>
<!-- Generator: Fusion 360, Shaper Origin Export Add-In, Version 1.4.1  -->

<svg
   xmlns:shaper="http://www.shapertools.com/namespaces/shaper"
   xmlns:dc="http://purl.org/dc/elements/1.1/"
   xmlns:cc="http://creativecommons.org/ns#"
   xmlns:rdf="http://www.w3.org/1999/02/22-rdf-syntax-ns#"
   xmlns:svg="http://www.w3.org/2000/svg"
   xmlns="http://www.w3.org/2000/svg"
   xmlns:sodipodi="http://sodipodi.sourceforge.net/DTD/sodipodi-0.dtd"
   xmlns:inkscape="http://www.inkscape.org/namespaces/inkscape"
   enable-background="new 0 0 18.2549721 11.7375483"
   height="11.7375483cm"
   shaper:fusionaddin="version:1.4.1"
   version="1.1"
   viewBox="0 0 18.2549721 11.7375483"
   width="18.2549721cm"
   x="0cm"
   xml:space="preserve"
   y="0cm"
   id="svg6513"
   sodipodi:docname="wholeWall1.svg"
   inkscape:version="0.92.4 (5da689c313, 2019-01-14)"><metadata
     id="metadata6519"><rdf:RDF><cc:Work
         rdf:about=""><dc:format>image/svg+xml</dc:format><dc:type
           rdf:resource="http://purl.org/dc/dcmitype/StillImage" /></cc:Work></rdf:RDF></metadata><defs
     id="defs6517" /><sodipodi:namedview
     pagecolor="#ffffff"
     bordercolor="#666666"
     borderopacity="1"
     objecttolerance="10"
     gridtolerance="10"
     guidetolerance="10"
     inkscape:pageopacity="0"
     inkscape:pageshadow="2"
     inkscape:window-width="1920"
     inkscape:window-height="1017"
     id="namedview6515"
     showgrid="false"
     inkscape:zoom="0.50728188"
     inkscape:cx="344.97586"
     inkscape:cy="221.81193"
     inkscape:window-x="-8"
     inkscape:window-y="-8"
     inkscape:window-maximized="1"
     inkscape:current-layer="svg6513" /><path
     d="M-17.5042485,10.0644708 L-17.6970848,9.8346575 -16.1649959,8.5490823 -15.9721596,8.7788956 -14.4400707,7.4933204 -14.632907,7.263507 -13.1008181,5.9779318 -12.9079818,6.2077452 -11.375893,4.9221699 -11.5687292,4.6923566 -10.0366404,3.4067814 -9.8438041,3.6365947 -8.3117152,2.3510195 -8.5045515,2.1212062 -6.9724626,0.8356309 -6.7796263,1.0654443 -5.7837685,0.2298204 -5.9766048,0.0000071 -5.9765964,-0 -5.3,0 -5.3,1.087543 -5,1.087543 -5,0 0,0 0,0.7375483 -0.3,0.7375483 -0.3,2.7375483 0,2.7375483 0,4.7375483 -0.3,4.7375483 -0.3,6.7375483 0,6.7375483 0,8.7375483 -0.3,8.7375483 -0.3,10.7375483 0,10.7375483 0,11.7375483 -0.3,11.7375483 -0.3,11.4375483 -1.8,11.4375483 -1.8,11.7375483 -3.2,11.7375483 -3.2,11.4375483 -4.7,11.4375483 -4.7,11.737543 -5,11.737543 -5,9.837543 -5.3,9.837543 -5.3,11.737543 -5.6,11.737543 -5.6,11.437543 -7.6,11.437543 -7.6,11.737543 -9.6,11.737543 -9.6,11.437543 -11.6,11.437543 -11.6,11.737543 -13.6,11.737543 -13.6,11.437543 -15.6,11.437543 -15.6,11.737543 -17.3796734,11.737543 -18.2549721,10.6944027 -17.5042485,10.0644708z"
     fill="rgb(0,0,0)"
     shaper:cutDepth="0.003"
     shaper:pathType="exterior"
     transform="matrix(1,0,0,-1,18.2549721,11.7375483)"
     vector-effect="non-scaling-stroke"
     id="path6505"
     style="fill:none;stroke:#000000;stroke-opacity:1;stroke-width:0.08;stroke-miterlimit:4;stroke-dasharray:none" /><path
     d="M-5,6.187543 L-5.3,6.187543 -5.3,4.737543 -5,4.737543 -5,6.187543z"
     fill="rgb(255,255,255)"
     shaper:cutDepth="0.003"
     shaper:pathType="interior"
     stroke="rgb(0,0,0)"
     stroke-width="2"
     transform="matrix(1,0,0,-1,18.2549721,11.7375483)"
     vector-effect="non-scaling-stroke"
     id="path6507"
     style="fill:none;stroke:#000000;stroke-opacity:1;stroke-width:0.08;stroke-miterlimit:4;stroke-dasharray:none" /><path
     d="M-5,3.587543 L-5.3,3.587543 -5.3,2.137543 -5,2.137543 -5,3.587543z"
     fill="rgb(255,255,255)"
     shaper:cutDepth="0.003"
     shaper:pathType="interior"
     stroke="rgb(0,0,0)"
     stroke-width="2"
     transform="matrix(1,0,0,-1,18.2549721,11.7375483)"
     vector-effect="non-scaling-stroke"
     id="path6509"
     style="fill:none;stroke:#000000;stroke-opacity:1;stroke-width:0.08;stroke-miterlimit:4;stroke-dasharray:none" /><path
     d="M-5,8.787543 L-5.3,8.787543 -5.3,7.237543 -5,7.237543 -5,8.787543z"
     fill="rgb(255,255,255)"
     shaper:cutDepth="0.003"
     shaper:pathType="interior"
     stroke="rgb(0,0,0)"
     stroke-width="2"
     transform="matrix(1,0,0,-1,18.2549721,11.7375483)"
     vector-effect="non-scaling-stroke"
     id="path6511"
     style="fill:none;stroke:#000000;stroke-opacity:1;stroke-width:0.08;stroke-miterlimit:4;stroke-dasharray:none" /></svg>